<mxfile host="app.diagrams.net" agent="Mozilla/5.0 (Windows NT 10.0; Win64; x64) AppleWebKit/537.36 (KHTML, like Gecko) Chrome/133.0.0.0 Safari/537.36 OPR/118.0.0.0" version="26.1.1">
  <diagram id="C5RBs43oDa-KdzZeNtuy" name="Page-1">
    <mxGraphModel dx="826" dy="434" grid="1" gridSize="10" guides="1" tooltips="1" connect="1" arrows="1" fold="1" page="1" pageScale="1" pageWidth="827" pageHeight="1169" background="#ffffff" math="0" shadow="0">
      <root>
        <mxCell id="WIyWlLk6GJQsqaUBKTNV-0" />
        <mxCell id="WIyWlLk6GJQsqaUBKTNV-1" parent="WIyWlLk6GJQsqaUBKTNV-0" />
        <mxCell id="8GCRxeCxm9QawgFhnsp0-0" value="Chamado" style="swimlane;fontStyle=1;align=center;verticalAlign=top;childLayout=stackLayout;horizontal=1;startSize=30;horizontalStack=0;resizeParent=1;resizeParentMax=0;resizeLast=0;collapsible=1;marginBottom=0;whiteSpace=wrap;html=1;" vertex="1" parent="WIyWlLk6GJQsqaUBKTNV-1">
          <mxGeometry x="350" y="56" width="180" height="404" as="geometry" />
        </mxCell>
        <mxCell id="8GCRxeCxm9QawgFhnsp0-1" value="+ id: int (PK)&lt;br/&gt;    + solicitante: string&lt;br/&gt;    + dataAbertura: datetime&lt;br/&gt;    + descricao: string&lt;br/&gt;    + status: enum {Aberto, EmAndamento, Pendente, Resolvido, Fechado}&lt;br/&gt;    + prioridade: enum {Baixa, Media, Alta}&lt;br/&gt;    + tecnicoResponsavel: string&lt;br/&gt;    + dataFechamento: datetime&lt;br/&gt;    + solucao: string&lt;br/&gt;    + categoria: string" style="text;strokeColor=none;fillColor=none;align=left;verticalAlign=top;spacingLeft=4;spacingRight=4;overflow=hidden;rotatable=0;points=[[0,0.5],[1,0.5]];portConstraint=eastwest;whiteSpace=wrap;html=1;" vertex="1" parent="8GCRxeCxm9QawgFhnsp0-0">
          <mxGeometry y="30" width="180" height="194" as="geometry" />
        </mxCell>
        <mxCell id="8GCRxeCxm9QawgFhnsp0-2" value="" style="line;strokeWidth=1;fillColor=none;align=left;verticalAlign=middle;spacingTop=-1;spacingLeft=3;spacingRight=3;rotatable=0;labelPosition=right;points=[];portConstraint=eastwest;strokeColor=inherit;" vertex="1" parent="8GCRxeCxm9QawgFhnsp0-0">
          <mxGeometry y="224" width="180" height="20" as="geometry" />
        </mxCell>
        <mxCell id="8GCRxeCxm9QawgFhnsp0-3" value="+ atualizarStatus(novoStatus: enum): void&lt;br/&gt;    + atribuirTecnico(tecnico: Tecnico): void&lt;br/&gt;    + adicionarSolucao(solucao: string): void&lt;br/&gt;    + fecharChamado(): void&lt;br/&gt;    + adicionarHistorico(evento: string, usuario: string): void" style="text;strokeColor=none;fillColor=none;align=left;verticalAlign=top;spacingLeft=4;spacingRight=4;overflow=hidden;rotatable=0;points=[[0,0.5],[1,0.5]];portConstraint=eastwest;whiteSpace=wrap;html=1;" vertex="1" parent="8GCRxeCxm9QawgFhnsp0-0">
          <mxGeometry y="244" width="180" height="160" as="geometry" />
        </mxCell>
        <mxCell id="8GCRxeCxm9QawgFhnsp0-4" value="Solicitante" style="swimlane;fontStyle=1;align=center;verticalAlign=top;childLayout=stackLayout;horizontal=1;startSize=26;horizontalStack=0;resizeParent=1;resizeParentMax=0;resizeLast=0;collapsible=1;marginBottom=0;whiteSpace=wrap;html=1;" vertex="1" parent="WIyWlLk6GJQsqaUBKTNV-1">
          <mxGeometry x="640" y="56" width="160" height="180" as="geometry" />
        </mxCell>
        <mxCell id="8GCRxeCxm9QawgFhnsp0-5" value="+ id: int (PK)&lt;br/&gt;    + nome: string&lt;br/&gt;    + departamento: string&lt;br/&gt;    + email: string&lt;br/&gt;    + telefone: string&lt;div&gt;&lt;br/&gt;&lt;/div&gt;" style="text;strokeColor=none;fillColor=none;align=left;verticalAlign=top;spacingLeft=4;spacingRight=4;overflow=hidden;rotatable=0;points=[[0,0.5],[1,0.5]];portConstraint=eastwest;whiteSpace=wrap;html=1;" vertex="1" parent="8GCRxeCxm9QawgFhnsp0-4">
          <mxGeometry y="26" width="160" height="84" as="geometry" />
        </mxCell>
        <mxCell id="8GCRxeCxm9QawgFhnsp0-6" value="" style="line;strokeWidth=1;fillColor=none;align=left;verticalAlign=middle;spacingTop=-1;spacingLeft=3;spacingRight=3;rotatable=0;labelPosition=right;points=[];portConstraint=eastwest;strokeColor=inherit;" vertex="1" parent="8GCRxeCxm9QawgFhnsp0-4">
          <mxGeometry y="110" width="160" height="30" as="geometry" />
        </mxCell>
        <mxCell id="8GCRxeCxm9QawgFhnsp0-7" value="+ registrarChamado()&amp;nbsp;&lt;div&gt;+ acompanharChamado()&lt;/div&gt;" style="text;strokeColor=none;fillColor=none;align=left;verticalAlign=top;spacingLeft=4;spacingRight=4;overflow=hidden;rotatable=0;points=[[0,0.5],[1,0.5]];portConstraint=eastwest;whiteSpace=wrap;html=1;" vertex="1" parent="8GCRxeCxm9QawgFhnsp0-4">
          <mxGeometry y="140" width="160" height="40" as="geometry" />
        </mxCell>
        <mxCell id="8GCRxeCxm9QawgFhnsp0-9" style="rounded=0;orthogonalLoop=1;jettySize=auto;html=1;exitX=1.006;exitY=0.113;exitDx=0;exitDy=0;exitPerimeter=0;" edge="1" parent="WIyWlLk6GJQsqaUBKTNV-1" source="8GCRxeCxm9QawgFhnsp0-1">
          <mxGeometry relative="1" as="geometry">
            <mxPoint x="540" y="175.06799999999998" as="sourcePoint" />
            <mxPoint x="640" y="108" as="targetPoint" />
          </mxGeometry>
        </mxCell>
        <mxCell id="8GCRxeCxm9QawgFhnsp0-15" value="1" style="edgeLabel;html=1;align=center;verticalAlign=middle;resizable=0;points=[];" vertex="1" connectable="0" parent="8GCRxeCxm9QawgFhnsp0-9">
          <mxGeometry x="0.6262" y="-1" relative="1" as="geometry">
            <mxPoint y="-9" as="offset" />
          </mxGeometry>
        </mxCell>
        <mxCell id="8GCRxeCxm9QawgFhnsp0-56" value="1..*" style="edgeLabel;html=1;align=center;verticalAlign=middle;resizable=0;points=[];" vertex="1" connectable="0" parent="8GCRxeCxm9QawgFhnsp0-9">
          <mxGeometry x="-0.7078" y="1" relative="1" as="geometry">
            <mxPoint y="-9" as="offset" />
          </mxGeometry>
        </mxCell>
        <mxCell id="8GCRxeCxm9QawgFhnsp0-16" value="Tecnico" style="swimlane;fontStyle=1;align=center;verticalAlign=top;childLayout=stackLayout;horizontal=1;startSize=26;horizontalStack=0;resizeParent=1;resizeParentMax=0;resizeLast=0;collapsible=1;marginBottom=0;whiteSpace=wrap;html=1;" vertex="1" parent="WIyWlLk6GJQsqaUBKTNV-1">
          <mxGeometry x="610" y="470" width="160" height="170" as="geometry" />
        </mxCell>
        <mxCell id="8GCRxeCxm9QawgFhnsp0-17" value="+ id: int (PK)&lt;br/&gt;    + nome: string&lt;br/&gt;    + especialidade: string&lt;br/&gt;    + email: string&lt;br/&gt;    + telefone: string" style="text;strokeColor=none;fillColor=none;align=left;verticalAlign=top;spacingLeft=4;spacingRight=4;overflow=hidden;rotatable=0;points=[[0,0.5],[1,0.5]];portConstraint=eastwest;whiteSpace=wrap;html=1;" vertex="1" parent="8GCRxeCxm9QawgFhnsp0-16">
          <mxGeometry y="26" width="160" height="84" as="geometry" />
        </mxCell>
        <mxCell id="8GCRxeCxm9QawgFhnsp0-18" value="" style="line;strokeWidth=1;fillColor=none;align=left;verticalAlign=middle;spacingTop=-1;spacingLeft=3;spacingRight=3;rotatable=0;labelPosition=right;points=[];portConstraint=eastwest;strokeColor=inherit;" vertex="1" parent="8GCRxeCxm9QawgFhnsp0-16">
          <mxGeometry y="110" width="160" height="10" as="geometry" />
        </mxCell>
        <mxCell id="8GCRxeCxm9QawgFhnsp0-19" value="+ receberChamado()&lt;br/&gt;    + atualizarStatusChamado()&lt;br/&gt;    + registrarSolucao()" style="text;strokeColor=none;fillColor=none;align=left;verticalAlign=top;spacingLeft=4;spacingRight=4;overflow=hidden;rotatable=0;points=[[0,0.5],[1,0.5]];portConstraint=eastwest;whiteSpace=wrap;html=1;" vertex="1" parent="8GCRxeCxm9QawgFhnsp0-16">
          <mxGeometry y="120" width="160" height="50" as="geometry" />
        </mxCell>
        <mxCell id="8GCRxeCxm9QawgFhnsp0-28" value="Categoria" style="swimlane;fontStyle=0;childLayout=stackLayout;horizontal=1;startSize=26;fillColor=none;horizontalStack=0;resizeParent=1;resizeParentMax=0;resizeLast=0;collapsible=1;marginBottom=0;whiteSpace=wrap;html=1;" vertex="1" parent="WIyWlLk6GJQsqaUBKTNV-1">
          <mxGeometry x="580" y="263" width="140" height="80" as="geometry" />
        </mxCell>
        <mxCell id="8GCRxeCxm9QawgFhnsp0-29" value="+ id: int (PK)&lt;br&gt;+ nome: string&lt;br&gt;+ descricao: string" style="text;strokeColor=none;fillColor=none;align=left;verticalAlign=top;spacingLeft=4;spacingRight=4;overflow=hidden;rotatable=0;points=[[0,0.5],[1,0.5]];portConstraint=eastwest;whiteSpace=wrap;html=1;" vertex="1" parent="8GCRxeCxm9QawgFhnsp0-28">
          <mxGeometry y="26" width="140" height="54" as="geometry" />
        </mxCell>
        <mxCell id="8GCRxeCxm9QawgFhnsp0-32" value="HistoricoChamados" style="swimlane;fontStyle=0;childLayout=stackLayout;horizontal=1;startSize=26;fillColor=none;horizontalStack=0;resizeParent=1;resizeParentMax=0;resizeLast=0;collapsible=1;marginBottom=0;whiteSpace=wrap;html=1;" vertex="1" parent="WIyWlLk6GJQsqaUBKTNV-1">
          <mxGeometry x="50" y="30" width="170" height="120" as="geometry" />
        </mxCell>
        <mxCell id="8GCRxeCxm9QawgFhnsp0-33" value="+ id: int (PK)&lt;br/&gt;    + chamadoId: int (FK)&lt;br/&gt;    + dataEvento: datetime&lt;br/&gt;    + descricaoEvento: string&lt;br/&gt;    + usuario: string" style="text;strokeColor=none;fillColor=none;align=left;verticalAlign=top;spacingLeft=4;spacingRight=4;overflow=hidden;rotatable=0;points=[[0,0.5],[1,0.5]];portConstraint=eastwest;whiteSpace=wrap;html=1;" vertex="1" parent="8GCRxeCxm9QawgFhnsp0-32">
          <mxGeometry y="26" width="170" height="94" as="geometry" />
        </mxCell>
        <mxCell id="8GCRxeCxm9QawgFhnsp0-36" value="IA" style="swimlane;fontStyle=0;childLayout=stackLayout;horizontal=1;startSize=26;fillColor=none;horizontalStack=0;resizeParent=1;resizeParentMax=0;resizeLast=0;collapsible=1;marginBottom=0;whiteSpace=wrap;html=1;" vertex="1" parent="WIyWlLk6GJQsqaUBKTNV-1">
          <mxGeometry x="30" y="173" width="190" height="170" as="geometry" />
        </mxCell>
        <mxCell id="8GCRxeCxm9QawgFhnsp0-37" value="+ analisarChamado(chamado: Chamado): Sugestao&lt;br/&gt;    + sugerirSolucao(chamado: Chamado): string&lt;br/&gt;    + recomendarTecnico(chamado: Chamado): Tecnico&lt;br/&gt;    + treinarModelo(historico: List&amp;lt;HistoricoChamados&amp;gt;)" style="text;strokeColor=none;fillColor=none;align=left;verticalAlign=top;spacingLeft=4;spacingRight=4;overflow=hidden;rotatable=0;points=[[0,0.5],[1,0.5]];portConstraint=eastwest;whiteSpace=wrap;html=1;" vertex="1" parent="8GCRxeCxm9QawgFhnsp0-36">
          <mxGeometry y="26" width="190" height="144" as="geometry" />
        </mxCell>
        <mxCell id="8GCRxeCxm9QawgFhnsp0-40" value="Sugestao" style="swimlane;fontStyle=0;childLayout=stackLayout;horizontal=1;startSize=26;fillColor=none;horizontalStack=0;resizeParent=1;resizeParentMax=0;resizeLast=0;collapsible=1;marginBottom=0;whiteSpace=wrap;html=1;" vertex="1" parent="WIyWlLk6GJQsqaUBKTNV-1">
          <mxGeometry x="280" y="510" width="210" height="170" as="geometry" />
        </mxCell>
        <mxCell id="8GCRxeCxm9QawgFhnsp0-41" value="+ analisarChamado(chamado: Chamado): Sugestao&lt;br/&gt;    + sugerirSolucao(chamado: Chamado): string&lt;br/&gt;    + recomendarTecnico(chamado: Chamado): Tecnico&lt;br/&gt;    + treinarModelo(historico: List&amp;lt;HistoricoChamados&amp;gt;)" style="text;strokeColor=none;fillColor=none;align=left;verticalAlign=top;spacingLeft=4;spacingRight=4;overflow=hidden;rotatable=0;points=[[0,0.5],[1,0.5]];portConstraint=eastwest;whiteSpace=wrap;html=1;" vertex="1" parent="8GCRxeCxm9QawgFhnsp0-40">
          <mxGeometry y="26" width="210" height="144" as="geometry" />
        </mxCell>
        <mxCell id="8GCRxeCxm9QawgFhnsp0-44" style="rounded=0;orthogonalLoop=1;jettySize=auto;html=1;entryX=-0.012;entryY=0.238;entryDx=0;entryDy=0;entryPerimeter=0;exitX=1;exitY=0.294;exitDx=0;exitDy=0;edgeStyle=entityRelationEdgeStyle;exitPerimeter=0;" edge="1" parent="WIyWlLk6GJQsqaUBKTNV-1" source="8GCRxeCxm9QawgFhnsp0-3" target="8GCRxeCxm9QawgFhnsp0-17">
          <mxGeometry relative="1" as="geometry">
            <mxPoint x="357" y="440" as="sourcePoint" />
            <mxPoint x="260.96000000000004" y="99.99600000000005" as="targetPoint" />
          </mxGeometry>
        </mxCell>
        <mxCell id="8GCRxeCxm9QawgFhnsp0-45" value="1" style="edgeLabel;html=1;align=center;verticalAlign=middle;resizable=0;points=[];" vertex="1" connectable="0" parent="8GCRxeCxm9QawgFhnsp0-44">
          <mxGeometry x="0.5898" relative="1" as="geometry">
            <mxPoint x="10" y="7" as="offset" />
          </mxGeometry>
        </mxCell>
        <mxCell id="8GCRxeCxm9QawgFhnsp0-51" value="1..*" style="edgeLabel;html=1;align=center;verticalAlign=middle;resizable=0;points=[];" vertex="1" connectable="0" parent="8GCRxeCxm9QawgFhnsp0-44">
          <mxGeometry x="-0.6824" y="1" relative="1" as="geometry">
            <mxPoint x="-14" y="-16" as="offset" />
          </mxGeometry>
        </mxCell>
        <mxCell id="8GCRxeCxm9QawgFhnsp0-47" style="edgeStyle=entityRelationEdgeStyle;rounded=0;orthogonalLoop=1;jettySize=auto;html=1;exitX=1;exitY=0.5;exitDx=0;exitDy=0;entryX=-0.014;entryY=0.389;entryDx=0;entryDy=0;entryPerimeter=0;" edge="1" parent="WIyWlLk6GJQsqaUBKTNV-1" source="8GCRxeCxm9QawgFhnsp0-1" target="8GCRxeCxm9QawgFhnsp0-29">
          <mxGeometry relative="1" as="geometry" />
        </mxCell>
        <mxCell id="8GCRxeCxm9QawgFhnsp0-48" value="1" style="edgeLabel;html=1;align=center;verticalAlign=middle;resizable=0;points=[];" vertex="1" connectable="0" parent="8GCRxeCxm9QawgFhnsp0-47">
          <mxGeometry x="0.7881" relative="1" as="geometry">
            <mxPoint y="-12" as="offset" />
          </mxGeometry>
        </mxCell>
        <mxCell id="8GCRxeCxm9QawgFhnsp0-52" value="1..*" style="edgeLabel;html=1;align=center;verticalAlign=middle;resizable=0;points=[];" vertex="1" connectable="0" parent="8GCRxeCxm9QawgFhnsp0-47">
          <mxGeometry x="-0.8654" y="1" relative="1" as="geometry">
            <mxPoint y="-11" as="offset" />
          </mxGeometry>
        </mxCell>
        <mxCell id="8GCRxeCxm9QawgFhnsp0-53" style="rounded=0;orthogonalLoop=1;jettySize=auto;html=1;entryX=0.994;entryY=0.404;entryDx=0;entryDy=0;entryPerimeter=0;edgeStyle=entityRelationEdgeStyle;exitX=-0.022;exitY=0.046;exitDx=0;exitDy=0;exitPerimeter=0;" edge="1" parent="WIyWlLk6GJQsqaUBKTNV-1" source="8GCRxeCxm9QawgFhnsp0-1" target="8GCRxeCxm9QawgFhnsp0-33">
          <mxGeometry relative="1" as="geometry" />
        </mxCell>
        <mxCell id="8GCRxeCxm9QawgFhnsp0-54" value="1..*" style="edgeLabel;html=1;align=center;verticalAlign=middle;resizable=0;points=[];" vertex="1" connectable="0" parent="8GCRxeCxm9QawgFhnsp0-53">
          <mxGeometry x="-0.8155" y="1" relative="1" as="geometry">
            <mxPoint y="-10" as="offset" />
          </mxGeometry>
        </mxCell>
        <mxCell id="8GCRxeCxm9QawgFhnsp0-55" value="1..*" style="edgeLabel;html=1;align=center;verticalAlign=middle;resizable=0;points=[];" vertex="1" connectable="0" parent="8GCRxeCxm9QawgFhnsp0-53">
          <mxGeometry x="0.7753" y="-1" relative="1" as="geometry">
            <mxPoint x="-4" y="-9" as="offset" />
          </mxGeometry>
        </mxCell>
        <mxCell id="8GCRxeCxm9QawgFhnsp0-57" style="rounded=0;orthogonalLoop=1;jettySize=auto;html=1;entryX=-0.017;entryY=0.959;entryDx=0;entryDy=0;entryPerimeter=0;edgeStyle=entityRelationEdgeStyle;" edge="1" parent="WIyWlLk6GJQsqaUBKTNV-1" source="8GCRxeCxm9QawgFhnsp0-37" target="8GCRxeCxm9QawgFhnsp0-1">
          <mxGeometry relative="1" as="geometry" />
        </mxCell>
        <mxCell id="8GCRxeCxm9QawgFhnsp0-58" value="1..*" style="edgeLabel;html=1;align=center;verticalAlign=middle;resizable=0;points=[];" vertex="1" connectable="0" parent="8GCRxeCxm9QawgFhnsp0-57">
          <mxGeometry x="0.8448" y="1" relative="1" as="geometry">
            <mxPoint y="-10" as="offset" />
          </mxGeometry>
        </mxCell>
        <mxCell id="8GCRxeCxm9QawgFhnsp0-59" value="1" style="edgeLabel;html=1;align=center;verticalAlign=middle;resizable=0;points=[];" vertex="1" connectable="0" parent="8GCRxeCxm9QawgFhnsp0-57">
          <mxGeometry x="-0.9028" y="2" relative="1" as="geometry">
            <mxPoint y="-8" as="offset" />
          </mxGeometry>
        </mxCell>
        <mxCell id="8GCRxeCxm9QawgFhnsp0-61" style="edgeStyle=entityRelationEdgeStyle;rounded=0;orthogonalLoop=1;jettySize=auto;html=1;entryX=0;entryY=0.438;entryDx=0;entryDy=0;entryPerimeter=0;elbow=vertical;exitX=0.995;exitY=0.674;exitDx=0;exitDy=0;exitPerimeter=0;" edge="1" parent="WIyWlLk6GJQsqaUBKTNV-1" source="8GCRxeCxm9QawgFhnsp0-37" target="8GCRxeCxm9QawgFhnsp0-41">
          <mxGeometry relative="1" as="geometry" />
        </mxCell>
        <mxCell id="8GCRxeCxm9QawgFhnsp0-62" value="1..*" style="edgeLabel;html=1;align=center;verticalAlign=middle;resizable=0;points=[];" vertex="1" connectable="0" parent="8GCRxeCxm9QawgFhnsp0-61">
          <mxGeometry x="0.6094" relative="1" as="geometry">
            <mxPoint x="13" y="33" as="offset" />
          </mxGeometry>
        </mxCell>
        <mxCell id="8GCRxeCxm9QawgFhnsp0-63" value="1" style="edgeLabel;html=1;align=center;verticalAlign=middle;resizable=0;points=[];" vertex="1" connectable="0" parent="8GCRxeCxm9QawgFhnsp0-61">
          <mxGeometry x="-0.7866" y="1" relative="1" as="geometry">
            <mxPoint x="-16" y="-22" as="offset" />
          </mxGeometry>
        </mxCell>
        <mxCell id="8GCRxeCxm9QawgFhnsp0-65" style="edgeStyle=entityRelationEdgeStyle;rounded=0;orthogonalLoop=1;jettySize=auto;html=1;entryX=0.063;entryY=0.15;entryDx=0;entryDy=0;entryPerimeter=0;elbow=vertical;" edge="1" parent="WIyWlLk6GJQsqaUBKTNV-1" source="8GCRxeCxm9QawgFhnsp0-41" target="8GCRxeCxm9QawgFhnsp0-19">
          <mxGeometry relative="1" as="geometry" />
        </mxCell>
        <mxCell id="8GCRxeCxm9QawgFhnsp0-66" value="1" style="edgeLabel;html=1;align=center;verticalAlign=middle;resizable=0;points=[];" vertex="1" connectable="0" parent="8GCRxeCxm9QawgFhnsp0-65">
          <mxGeometry x="0.6367" y="1" relative="1" as="geometry">
            <mxPoint y="-7" as="offset" />
          </mxGeometry>
        </mxCell>
        <mxCell id="8GCRxeCxm9QawgFhnsp0-67" value="1..*" style="edgeLabel;html=1;align=center;verticalAlign=middle;resizable=0;points=[];" vertex="1" connectable="0" parent="8GCRxeCxm9QawgFhnsp0-65">
          <mxGeometry x="-0.7376" relative="1" as="geometry">
            <mxPoint y="-9" as="offset" />
          </mxGeometry>
        </mxCell>
        <mxCell id="8GCRxeCxm9QawgFhnsp0-68" style="edgeStyle=entityRelationEdgeStyle;rounded=0;orthogonalLoop=1;jettySize=auto;html=1;elbow=vertical;entryX=0.995;entryY=0.103;entryDx=0;entryDy=0;entryPerimeter=0;exitX=0.867;exitY=1.019;exitDx=0;exitDy=0;exitPerimeter=0;" edge="1" parent="WIyWlLk6GJQsqaUBKTNV-1" source="8GCRxeCxm9QawgFhnsp0-3" target="8GCRxeCxm9QawgFhnsp0-40">
          <mxGeometry relative="1" as="geometry">
            <mxPoint x="540" y="430" as="sourcePoint" />
            <mxPoint x="313" y="500" as="targetPoint" />
            <Array as="points">
              <mxPoint x="540" y="460" />
              <mxPoint x="510" y="450" />
              <mxPoint x="500" y="480" />
            </Array>
          </mxGeometry>
        </mxCell>
        <mxCell id="8GCRxeCxm9QawgFhnsp0-69" value="1..*" style="edgeLabel;html=1;align=center;verticalAlign=middle;resizable=0;points=[];" vertex="1" connectable="0" parent="8GCRxeCxm9QawgFhnsp0-68">
          <mxGeometry x="0.7365" y="1" relative="1" as="geometry">
            <mxPoint x="-2" y="9" as="offset" />
          </mxGeometry>
        </mxCell>
        <mxCell id="8GCRxeCxm9QawgFhnsp0-70" value="1..*" style="edgeLabel;html=1;align=center;verticalAlign=middle;resizable=0;points=[];" vertex="1" connectable="0" parent="8GCRxeCxm9QawgFhnsp0-68">
          <mxGeometry x="-0.8559" relative="1" as="geometry">
            <mxPoint y="9" as="offset" />
          </mxGeometry>
        </mxCell>
      </root>
    </mxGraphModel>
  </diagram>
</mxfile>
